<svg xmlns="http://www.w3.org/2000/svg" width="51" height="46" viewBox="0 0 51 46" fill="none">
<rect width="51" height="46" fill="white"/>
<rect x="25" y="2" width="24" height="42" fill="black"/>
<rect x="9" y="12.7" width="8" height="25" fill="black"/>
<rect x="33" y="12.7" width="8" height="25" fill="white"/>
<path d="M17 12.7H20.5L17 37.7H9L17 12.7Z" fill="black"/>
<path d="M29.5 12.7H44.5L41 37.7L29.5 12.7Z" fill="white"/>
<path d="M33 37.7L44.5 12.7L41 37.7H33Z" fill="white"/>
<path d="M5.5 12.7H9H20.5L9 37.7L5.5 12.7Z" fill="black"/>
<path d="M5.5 12.7H9L17 37.7H9L5.5 12.7Z" fill="black"/>
<path d="M29.5 12.7H44.5L33 37.7L29.5 12.7Z" fill="white"/>
<path d="M29.5 12.7L41 37.7H33L29.5 12.7Z" fill="white"/>
<rect x="4" y="12.7" width="18" height="1" fill="black"/>
<rect x="28" y="12.7" width="18" height="1" fill="white"/>
<path d="M12.5 12.7V7.20001" stroke="black"/>
<path d="M36.5 12.7V7.20001" stroke="white"/>
<path d="M12.6 7.5L10.1 4" stroke="black"/>
<path d="M36.6 7.5L34.1 4" stroke="white"/>
<line x1="50" y1="0.5" x2="1" y2="0.5" stroke="black"/>
<line x1="50" y1="45.5" x2="1" y2="45.5" stroke="black"/>
<line x1="0.5" x2="0.5" y2="46" stroke="black"/>
<line x1="50.5" x2="50.5" y2="46" stroke="black"/>
</svg>
